<svg width="24" height="24" viewBox="0 0 24 24" fill="none" xmlns="http://www.w3.org/2000/svg">
<path d="M10.8398 13.5107L10.3926 18.2998H17.2002C17.8077 18.2998 18.3008 17.8077 18.3008 17.2002V14.3838L13.667 12.2246L10.8398 13.5107ZM5.7002 17.2002C5.7002 17.8076 6.19248 18.2996 6.7998 18.2998H8.38477L8.85059 13.3223L5.7002 11.0889V17.2002ZM14.7627 10.5293L18.3008 12.1777V6.7998C18.3007 6.19238 17.8076 5.7002 17.2002 5.7002H15.417L14.7627 10.5293ZM6.7998 5.7002C6.19254 5.70041 5.7003 6.19252 5.7002 6.7998V8.63867L10.0078 11.6924L12.7559 10.4443L13.3984 5.7002H6.7998Z" fill="#70FF81"/>
<path d="M19.5 3H4.5C3.67157 3 3 3.67157 3 4.5V19.5C3 20.3284 3.67157 21 4.5 21H19.5C20.3284 21 21 20.3284 21 19.5V4.5C21 3.67157 20.3284 3 19.5 3Z" stroke="#70FF81" stroke-width="2"/>
</svg>
