<svg width="24" height="24" viewBox="0 0 24 24" fill="none" xmlns="http://www.w3.org/2000/svg">
<path d="M14.8999 3.00002C13.7623 2.99687 12.6655 3.42454 11.8306 4.19728C10.9956 4.97014 10.4845 6.03146 10.3999 7.16603C9.90713 6.71265 9.31906 6.37416 8.6792 6.17678C8.03959 5.97953 7.36395 5.92755 6.70166 6.02443C6.03929 6.12139 5.40643 6.36499 4.8501 6.73732C4.29368 7.10981 3.82701 7.60218 3.48486 8.17775C3.32964 8.43889 3.20315 8.71483 3.104 9.00002H13.2534C14.1367 9.00025 14.8528 9.71632 14.853 10.5996V19.5H16.3999C16.7977 19.5 17.1791 19.3419 17.4604 19.0606C17.7417 18.7793 17.8999 18.3978 17.8999 18V16.5L22.3999 19.5V10.5L17.8999 13.5V10.8447C18.5758 10.2365 19.0512 9.43771 19.2642 8.55373C19.4771 7.66972 19.418 6.74191 19.0933 5.8926C18.7685 5.04325 18.1933 4.31229 17.4448 3.79592C16.6964 3.27965 15.8091 3.00206 14.8999 3.00002Z" fill="#6393FF"/>
<path d="M6.24219 18.0664L5.83691 22.4004H11.9004C12.5078 22.4003 13 21.9073 13 21.2998V18.9033L8.75488 16.9248L6.24219 18.0664ZM1.45312 21.2998C1.45312 21.9072 1.94542 22.4002 2.55273 22.4004H3.8291L4.25293 17.8779L1.45312 15.8936V21.2998ZM9.84863 15.2285L13 16.6963V11.9531C13 11.3457 12.5078 10.8526 11.9004 10.8525H10.4414L9.84863 15.2285ZM2.55273 10.8525C1.94542 10.8528 1.45312 11.3458 1.45312 11.9531V13.4424L5.41016 16.248L7.84277 15.1426L8.42285 10.8525H2.55273Z" fill="#6393FF"/>
</svg>
