<svg width="24" height="24" viewBox="0 0 24 24" fill="none" xmlns="http://www.w3.org/2000/svg">
<path d="M19.3125 3.9375H4.6875C3.44486 3.9375 2.4375 4.94486 2.4375 6.1875V17.8125C2.4375 19.0551 3.44486 20.0625 4.6875 20.0625H19.3125C20.5551 20.0625 21.5625 19.0551 21.5625 17.8125V6.1875C21.5625 4.94486 20.5551 3.9375 19.3125 3.9375Z" stroke="#E0E0E0" stroke-width="1.875"/>
<path d="M14.8125 6.9375H9.1875C7.94486 6.9375 6.9375 7.94486 6.9375 9.1875V14.8125C6.9375 16.0551 7.94486 17.0625 9.1875 17.0625H14.8125C16.0551 17.0625 17.0625 16.0551 17.0625 14.8125V9.1875C17.0625 7.94486 16.0551 6.9375 14.8125 6.9375Z" stroke="#E0E0E0" stroke-width="1.875"/>
<path d="M14 7L13 11.5M13 11.5L11 12.5M13 11.5L16.9999 13.5M11 12.5L6.99999 10.5M11 12.5L9.99991 17" stroke="#E0E0E0" stroke-width="2"/>
</svg>
