<svg width="24" height="24" viewBox="0 0 24 24" fill="none" xmlns="http://www.w3.org/2000/svg">
<path d="M10.0781 14.3398L9.36133 22H20.9004C21.5079 22 22 21.5079 22 20.9004V15.6885L14.6475 12.2627L10.0781 14.3398ZM2 20.9004C2.00001 21.5079 2.49308 22 3.10059 22H6.34863L7.09277 14.0566L2 10.4482V20.9004ZM16.29 9.71875L22 12.3789V3.09961C21.9998 2.49228 21.5078 2 20.9004 2H17.335L16.29 9.71875ZM3.10059 2C2.4932 2 2.00021 2.49228 2 3.09961V6.77148L8.83008 11.6113L13.2803 9.58887L14.3076 2H3.10059Z" fill="#6393FF"/>
</svg>
